<?xml version="1.0" encoding="utf-8"?>
<!-- Generator: Adobe Illustrator 19.2.1, SVG Export Plug-In . SVG Version: 6.00 Build 0)  -->
<svg version="1.1" id="layer" xmlns="http://www.w3.org/2000/svg" xmlns:xlink="http://www.w3.org/1999/xlink" x="0px" y="0px"
	 viewBox="0 0 652 652" style="enable-background:new 0 0 652 652;" xml:space="preserve">
<style type="text/css">
	.st0{fill:#231815;}
	.st1{fill:#CF0E19;}
	.st2{fill:#7B7A7B;}
</style>
<polygon class="st0" points="162,253.5 198,253.5 198,264.6 175.2,264.6 175.2,294.6 196.6,294.6 196.6,305.7 175.2,305.7 
	175.2,338 198,338 198,349.1 162,349.1 "/>
<g>
	<path class="st0" d="M227.2,296.4h3.4c10.5,0,11.9-2,11.9-16.3c0-14.2-0.8-15.5-9-15.5h-6.4V296.4z M214,253.5h20.5
		c19.3,0,21.3,5.2,21.3,26.1c0,12.8-1.7,18.4-12.6,21.7v0.3c9,0.9,12,5.6,12,14.6v20.8c0,3.4,0,8.2,0.8,12.2h-12.4
		c-1.3-2.4-1.6-4.8-1.6-8.6v-21.6c0-9-1.6-11.4-10.3-11.4h-4.5v41.6H214V253.5z"/>
</g>
<polygon class="st0" points="273.8,253.5 309.8,253.5 309.8,264.6 287,264.6 287,294.6 308.5,294.6 308.5,305.7 287,305.7 
	287,349.1 273.8,349.1 "/>
<rect x="325.6" y="253.5" class="st0" width="13.2" height="95.6"/>
<g>
	<path class="st0" d="M356,277.9c0-13.4,4.4-25.2,22.4-25.2c13.1,0,19.2,6.6,19.2,17.3v9.5h-12.4V273c0-6.1-2.1-9.9-7.7-9.9
		c-6.9,0-8.2,4.9-8.2,16.4v46.9c0,11.3,3.6,13.2,7.8,13.2c4.9,0,8.1-3.4,8.1-11.4v-6.6h12.4v10.6c0,10.1-4.1,17.7-19.5,17.7
		c-16.7,0-22.1-8.9-22.1-23.7V277.9z"/>
</g>
<rect x="413.8" y="253.5" class="st0" width="13.2" height="95.6"/>
<polygon class="st0" points="444.9,253.5 480.9,253.5 480.9,264.6 458.2,264.6 458.2,294.6 479.6,294.6 479.6,305.7 458.2,305.7 
	458.2,338 480.9,338 480.9,349.1 444.9,349.1 "/>
<polygon class="st0" points="496.9,253.5 515.2,253.5 530.8,333 531.1,333 531.1,253.5 543.6,253.5 543.6,349.1 524.5,349.1 
	508.9,267.6 508.6,267.6 508.6,349.1 496.9,349.1 "/>
<polygon class="st0" points="559.6,253.5 604.6,253.5 604.6,264.6 588.7,264.6 588.7,349.1 575.5,349.1 575.5,264.6 559.6,264.6 "/>
<g>
	<path class="st1" d="M20,362.9V228.1h78.4c32.5,0,47.8,18.9,47.8,44.2c0,26.9-17.6,45.2-55.3,45.2H73.1v-4.8h13.5
		c26.2,0,38.4-14.3,38.4-35.3c0-19.8-10.6-34.5-33.2-34.5H37.4v105.2h36.1v14.8H20z"/>
	<path class="st0" d="M73.1,288.9v-22H77c8,0,11.1,3.2,11.1,10.6c0,7.4-3.6,11.4-13.2,11.4H73.1z"/>
	<path class="st0" d="M613.3,258.4v-1.7h1.2c0.8,0,1,0.2,1,0.7c0,0.5-0.2,0.9-1.2,0.9H613.3z M614.2,259.4c0.4,0,0.7,0,0.9,0.3
		c0.3,0.3,0.3,0.8,0.4,1.4c0,0.4,0.2,0.8,0.2,1.2h1.3c-0.2-0.6-0.3-1.3-0.4-1.9c-0.1-0.7-0.2-1.1-1.1-1.3v0c0.9-0.2,1.3-0.8,1.3-1.5
		c0-1.5-1.2-1.8-2.4-1.8h-2.1v6.5h1v-2.8H614.2z M614.5,263.6c-2.5,0-4.6-2-4.6-4.6c0-2.5,2-4.6,4.6-4.6c2.5,0,4.6,2,4.6,4.6
		C619,261.6,617,263.6,614.5,263.6 M614.5,264.6c3.1,0,5.5-2.5,5.5-5.5c0-3.1-2.5-5.5-5.5-5.5c-3.1,0-5.5,2.5-5.5,5.5
		C608.9,262.1,611.4,264.6,614.5,264.6"/>
</g>
<polygon class="st2" points="35.2,415.5 25.8,393.2 30.5,393.2 37.6,410.9 44.5,393.2 49.2,393.2 39.4,415.5 "/>
<path class="st2" d="M56.1,393.2h4.2v22.3h-4.2V393.2z M55.7,383.4h5v4.6h-5V383.4z"/>
<g>
	<path class="st2" d="M77.5,392.5c4.2,0,9,1.8,8.7,6.8h-4.4c0.2-2.8-2-3.8-4.4-3.8c-2.3,0-4.1,1.1-4.1,3.6c0,2.5,3.8,2.7,5.4,3.2
		c3.8,1.2,8.1,1.7,8.1,6.7c0,5.5-5.3,7.2-9.9,7.2c-4.7,0-8.6-2.1-8.5-7.3h4.4c0.1,2.8,2,4.2,4.5,4.2c2.5,0,5-1,5-3.9
		c0-5-13.6-1.2-13.6-10C68.8,394.6,73.5,392.5,77.5,392.5"/>
</g>
<path class="st2" d="M94.8,393.2H99v22.3h-4.2V393.2z M94.4,383.4h5v4.6h-5V383.4z"/>
<g>
	<path class="st2" d="M118.4,413.1c5,0,6.7-4,6.7-8.8c0-4.8-1.6-8.8-6.7-8.8c-5,0-6.7,4-6.7,8.8
		C111.8,409.1,113.4,413.1,118.4,413.1 M129.5,404.4c0,6.9-3.8,11.8-11.1,11.8s-11.1-4.9-11.1-11.8c0-6.9,3.8-11.8,11.1-11.8
		S129.5,397.4,129.5,404.4"/>
	<path class="st2" d="M142.1,396.5L142.1,396.5c1.5-2.8,4.6-4,6.8-4c1.6,0,8.4,0.4,8.4,7.6v15.4h-4.2v-14c0-3.7-1.6-5.7-5.1-5.7
		c0,0-2.3-0.1-4.1,1.6c-0.6,0.6-1.8,1.6-1.8,6v12.1h-4.2v-22.3h4.1V396.5z"/>
	<path class="st2" d="M227.8,402.2c0.1-3.7-1.6-6.6-5.7-6.6c-3.5,0-5.6,3-5.6,6.6H227.8z M216.5,405.2c-0.3,3.9,1.3,8,5.6,8
		c3.3,0,4.9-1.3,5.4-4.5h4.4c-0.7,5.1-4.6,7.6-9.9,7.6c-7.2,0-10-5.1-10-11.7c0-6.5,3.3-12,10.4-12c6.7,0.1,9.8,4.4,9.8,10.5v2.1
		H216.5z"/>
</g>
<polygon class="st2" points="251,404.1 259.8,415.5 254.3,415.5 247.9,406.6 241.6,415.5 236.7,415.5 245.6,403.8 237.2,393.2 
	242.7,393.2 248.6,401.6 254.9,393.2 259.8,393.2 "/>
<g>
	<path class="st2" d="M280,402.2c0.1-3.7-1.6-6.6-5.7-6.6c-3.5,0-5.6,3-5.6,6.6H280z M268.7,405.2c-0.3,3.9,1.3,8,5.6,8
		c3.3,0,4.9-1.3,5.4-4.5h4.4c-0.7,5.1-4.6,7.6-9.9,7.6c-7.2,0-10-5.1-10-11.7c0-6.5,3.3-12,10.4-12c6.7,0.1,9.8,4.4,9.8,10.5v2.1
		H268.7z"/>
	<path class="st2" d="M305.7,400.4c-0.2-2.8-1.6-4.8-4.6-4.8c-4,0-5.6,3.5-5.6,8.8c0,5.3,1.6,8.8,5.6,8.8c2.8,0,4.5-1.8,4.8-5h4.2
		c-0.4,5-4.1,8.1-9,8.1c-7.2,0-10-5.1-10-11.7c0-6.5,3.3-12,10.4-12c4.7,0,8.3,3,8.5,7.8H305.7z"/>
	<path class="st2" d="M332.8,393.2h4.2v22.3h-4.1v-3.3h-0.1c-1.7,2.8-4.5,4-7.6,4c-4.7,0-7.3-3.6-7.3-8v-14.9h4.2v13.2
		c0,3.9,0.9,6.7,4.9,6.7c1.7,0,4.1-0.9,5-3.2c0.8-2.1,0.8-4.7,0.8-5.2V393.2z"/>
	<path class="st2" d="M347.6,393.2v-4.8l4.2-1.3v6.1l5.2-0.1v3.2l-5.2,0v14.4c0,1.6,1.2,2.4,2.8,2.4c0.7,0,1.6-0.1,2.2-0.3v3.2
		c-1,0-1.9,0.3-2.9,0.3c-1,0-1.8,0-2.8-0.2c-0.7-0.1-1.8-0.5-2.5-1.5c-0.8-1.1-1-1.2-1-4.1v-14.2l-3.8,0v-3.2L347.6,393.2z"/>
</g>
<path class="st2" d="M364.2,393.2h4.2v22.3h-4.2V393.2z M363.8,383.4h5v4.6h-5V383.4z"/>
<g>
	<path class="st2" d="M387.8,413.1c5,0,6.7-4,6.7-8.8c0-4.8-1.6-8.8-6.7-8.8s-6.7,4-6.7,8.8C381.1,409.1,382.8,413.1,387.8,413.1
		 M398.9,404.4c0,6.9-3.8,11.8-11.1,11.8c-7.3,0-11.1-4.9-11.1-11.8c0-6.9,3.8-11.8,11.1-11.8C395.1,392.5,398.9,397.4,398.9,404.4"
		/>
	<path class="st2" d="M411.4,396.5L411.4,396.5c1.5-2.8,4.6-4,6.8-4c1.6,0,8.4,0.4,8.4,7.6v15.4h-4.2v-14c0-3.7-1.6-5.7-5.1-5.7
		c0,0-2.3-0.1-4.1,1.6c-0.6,0.6-1.8,1.6-1.8,6v12.1h-4.2v-22.3h4.1V396.5z"/>
</g>
<polygon class="st2" points="489.2,415.5 479.8,393.2 484.5,393.2 491.6,410.9 498.6,393.2 503.2,393.2 493.4,415.5 "/>
<g>
	<path class="st2" d="M518.2,404.7c-2.6,0.1-6,1.1-6,4.3c0,2.8,1.9,4.1,4.4,4.1c5,0,5.9-4.3,5.8-8.5H518.2z M522.5,401.7
		c0-3.9-0.2-6.1-4.7-6.1c-2.1,0-4.1,1.2-4.2,3.6h-4.4c0.2-4.9,4-6.6,8.5-6.6c4.6,0,9.1,1.4,9.1,7.6v10.7c0,1,0,2.8,0.2,4.7H524
		c-0.4,0-1.2,0.2-1.2-0.3c-0.1-1-0.2-2-0.2-3h-0.1c-1.4,2.8-3.9,4-6.9,4c-3.9,0-7.8-2-7.8-6.4c0-6.3,5.6-8.1,10.8-8.1H522.5z"/>
</g>
<rect x="536.1" y="383.4" class="st2" width="4.2" height="32.1"/>
<g>
	<path class="st2" d="M564.9,393.2h4.2v22.3H565v-3.3h-0.1c-1.7,2.8-4.5,4-7.6,4c-4.7,0-7.3-3.6-7.3-8v-14.9h4.2v13.2
		c0,3.9,0.9,6.7,4.9,6.7c1.7,0,4.1-0.9,5-3.2c0.8-2.1,0.8-4.7,0.8-5.2V393.2z"/>
	<path class="st2" d="M593.2,402.2c0.1-3.7-1.6-6.6-5.7-6.6c-3.5,0-5.6,3-5.6,6.6H593.2z M581.9,405.2c-0.3,3.9,1.3,8,5.6,8
		c3.3,0,4.9-1.3,5.4-4.5h4.4c-0.7,5.1-4.6,7.6-9.9,7.6c-7.2,0-10-5.1-10-11.7c0-6.5,3.3-12,10.4-12c6.7,0.1,9.8,4.4,9.8,10.5v2.1
		H581.9z"/>
	<path class="st2" d="M172.3,412.8c0,1.7-1.3,3-3,3s-3-1.3-3-3c0-1.7,1.3-3,3-3S172.3,411.2,172.3,412.8"/>
	<path class="st2" d="M441.6,412.8c0,1.7-1.3,3-3,3c-1.7,0-3-1.3-3-3c0-1.7,1.3-3,3-3C440.3,409.8,441.6,411.2,441.6,412.8"/>
	<path class="st2" d="M611.1,412.8c0,1.7-1.3,3-3,3s-3-1.3-3-3c0-1.7,1.3-3,3-3S611.1,411.2,611.1,412.8"/>
</g>
</svg>
