<svg xmlns="http://www.w3.org/2000/svg" viewBox="0 0 32 32"><path d="M13.073 14.634a1.127 1.127 0 00-1.322 1.116v2.363a1.127 1.127 0 00.783 1.031A2.25 2.25 0 119.5 21.253V9.624a1.122 1.122 0 00-1.125-1.122h-2.25A1.122 1.122 0 005 9.624v11.629a6.753 6.753 0 108.073-6.62zM14.8 4.001a.755.755 0 00-.8.75v1.481a.742.742 0 00.7.745A12.041 12.041 0 0126 18.3a.749.749 0 00.745.7h1.5a.755.755 0 00.75-.8A15.038 15.038 0 0014.8 4.001zm.014 4.5a.756.756 0 00-.814.755v1.5a.748.748 0 00.694.745 7.488 7.488 0 016.793 6.807.753.753 0 00.745.689h1.51a.759.759 0 00.755-.811 10.548 10.548 0 00-9.686-9.69z"></path></svg>