<svg xmlns="http://www.w3.org/2000/svg" viewBox="0 0 32 32"><path d="M25.5 6h-18A1.506 1.506 0 006 7.514v17.972A1.506 1.506 0 007.5 27h18a1.51 1.51 0 001.5-1.514V7.514A1.51 1.51 0 0025.5 6zM12.347 24H9.234V13.978h3.118V24zm-1.556-11.391a1.805 1.805 0 01-1.8-1.8 1.805 1.805 0 011.8-1.8 1.808 1.808 0 011.8 1.8 1.8 1.8 0 01-1.8 1.8zM24.014 24H20.9v-4.875c0-1.162-.023-2.658-1.617-2.658-1.622 0-1.87 1.266-1.87 2.573V24H14.3V13.978h2.986v1.369h.042a3.278 3.278 0 012.948-1.617c3.15 0 3.736 2.077 3.736 4.777z"></path></svg>