<svg xmlns="http://www.w3.org/2000/svg" viewBox="0 0 32 32"><path d="M25.533 10.858A10.573 10.573 0 0028 8.315a9.861 9.861 0 01-2.832.761 4.906 4.906 0 002.162-2.711 9.684 9.684 0 01-3.122 1.188A4.907 4.907 0 0020.614 6a4.917 4.917 0 00-4.914 4.919 5.553 5.553 0 00.122 1.127A13.981 13.981 0 015.675 6.898a4.881 4.881 0 00-.67 2.482 4.915 4.915 0 002.193 4.1 4.953 4.953 0 01-2.223-.624v.061a4.919 4.919 0 003.944 4.824 5.2 5.2 0 01-1.294.167 6.2 6.2 0 01-.925-.076 4.928 4.928 0 004.594 3.414 9.851 9.851 0 01-6.106 2.1A10.18 10.18 0 014 23.284a13.9 13.9 0 007.553 2.208 13.9 13.9 0 0013.995-13.995c0-.213 0-.426-.015-.639z"></path></svg>